<svg width="49" height="48" viewBox="0 0 49 48" fill="none" xmlns="http://www.w3.org/2000/svg">
    <rect x="0.333313" width="48" height="48" rx="24" fill="#0EA5E9"/>
    <path d="M23.192 16.7124C23.5513 15.6069 25.1153 15.6069 25.4746 16.7125L26.7581 20.6626C26.9187 21.157 27.3795 21.4918 27.8993 21.4918H32.0528C33.2152 21.4918 33.6986 22.9793 32.7581 23.6626L29.3979 26.1039C28.9773 26.4095 28.8013 26.9512 28.962 27.4456L30.2455 31.3957C30.6047 32.5013 29.3393 33.4207 28.3989 32.7374L25.0386 30.296C24.6181 29.9905 24.0485 29.9905 23.628 30.296L20.2678 32.7374C19.3273 33.4207 18.0619 32.5013 18.4211 31.3957L19.7046 27.4456C19.8653 26.9512 19.6893 26.4095 19.2687 26.1039L15.9085 23.6626C14.968 22.9793 15.4514 21.4918 16.6138 21.4918H20.7673C21.2872 21.4918 21.7479 21.157 21.9086 20.6626L23.192 16.7124Z" fill="white"/>
</svg>
