<svg width="49" height="48" viewBox="0 0 49 48" fill="none" xmlns="http://www.w3.org/2000/svg">
    <rect x="0.666656" width="48" height="48" rx="24" fill="#EF4444"/>
    <path fill-rule="evenodd" clip-rule="evenodd" d="M26.7748 14.4402C27.1074 14.5286 27.3861 14.7555 27.5401 15.0634C28.1204 16.2239 28.5534 16.9283 28.9891 17.4994C29.4302 18.0775 29.8967 18.5507 30.6064 19.2604C32.2463 20.9003 33.0667 23.0522 33.0667 25.2001C33.0667 27.348 32.2463 29.4998 30.6064 31.1398C27.3259 34.4202 22.0074 34.4202 18.727 31.1398C17.087 29.4998 16.2667 27.348 16.2667 25.2001C16.2667 23.0522 17.087 20.9003 18.727 19.2604C19.0702 18.9172 19.5863 18.8145 20.0347 19.0002C20.4831 19.186 20.7755 19.6235 20.7755 20.1089C20.7755 21.4527 20.8594 22.4766 21.2524 23.2933C21.4685 23.7423 21.8057 24.1814 22.3867 24.5732C22.5255 23.3003 22.7797 21.7494 23.1232 20.2774C23.3936 19.1184 23.7299 17.9613 24.1303 16.9964C24.3305 16.5138 24.5569 16.0543 24.8141 15.6575C25.0644 15.2713 25.386 14.8783 25.8011 14.6016C26.0875 14.4106 26.4421 14.3519 26.7748 14.4402ZM27.2122 30.1456C25.8064 31.5515 23.527 31.5515 22.1211 30.1456C21.4181 29.4427 21.0667 28.5214 21.0667 27.6C21.0667 27.6 22.1211 28.2 24.0667 28.2C24.0667 27 24.6667 23.4 25.5667 22.8C26.1667 24 26.5093 24.3515 27.2122 25.0544C27.9152 25.7574 28.2667 26.6787 28.2667 27.6C28.2667 28.5214 27.9152 29.4427 27.2122 30.1456Z" fill="white"/>
</svg>
