<svg width="48" height="48" viewBox="0 0 48 48" fill="none" xmlns="http://www.w3.org/2000/svg">
    <rect width="48" height="48" rx="24" fill="#0EA5E9"/>
    <path d="M22.8 14.4C22.1373 14.4 21.6 14.9373 21.6 15.6C21.6 16.2627 22.1373 16.8 22.8 16.8H25.2C25.8628 16.8 26.4 16.2627 26.4 15.6C26.4 14.9373 25.8628 14.4 25.2 14.4H22.8Z" fill="white"/>
    <path fill-rule="evenodd" clip-rule="evenodd" d="M16.8 18C16.8 16.6745 17.8746 15.6 19.2 15.6C19.2 17.5882 20.8118 19.2 22.8 19.2H25.2C27.1883 19.2 28.8 17.5882 28.8 15.6C30.1255 15.6 31.2 16.6745 31.2 18V31.2C31.2 32.5255 30.1255 33.6 28.8 33.6H19.2C17.8746 33.6 16.8 32.5255 16.8 31.2V18ZM20.4 22.8C19.7373 22.8 19.2 23.3373 19.2 24C19.2 24.6627 19.7373 25.2 20.4 25.2H20.412C21.0748 25.2 21.612 24.6627 21.612 24C21.612 23.3373 21.0748 22.8 20.412 22.8H20.4ZM24 22.8C23.3373 22.8 22.8 23.3373 22.8 24C22.8 24.6627 23.3373 25.2 24 25.2H27.6C28.2628 25.2 28.8 24.6627 28.8 24C28.8 23.3373 28.2628 22.8 27.6 22.8H24ZM20.4 27.6C19.7373 27.6 19.2 28.1373 19.2 28.8C19.2 29.4627 19.7373 30 20.4 30H20.412C21.0748 30 21.612 29.4627 21.612 28.8C21.612 28.1373 21.0748 27.6 20.412 27.6H20.4ZM24 27.6C23.3373 27.6 22.8 28.1373 22.8 28.8C22.8 29.4627 23.3373 30 24 30H27.6C28.2628 30 28.8 29.4627 28.8 28.8C28.8 28.1373 28.2628 27.6 27.6 27.6H24Z" fill="white"/>
</svg>
