<svg width="24" height="24" viewBox="0 0 24 24" fill="none" xmlns="http://www.w3.org/2000/svg">
<path fill-rule="evenodd" clip-rule="evenodd" d="M7.20002 2.39999C6.53728 2.39999 6.00002 2.93725 6.00002 3.59999V4.79999H4.80002C3.47454 4.79999 2.40002 5.87451 2.40002 7.19999V19.2C2.40002 20.5255 3.47454 21.6 4.80002 21.6H19.2C20.5255 21.6 21.6 20.5255 21.6 19.2V7.19999C21.6 5.87451 20.5255 4.79999 19.2 4.79999H18V3.59999C18 2.93725 17.4628 2.39999 16.8 2.39999C16.1373 2.39999 15.6 2.93725 15.6 3.59999V4.79999H8.40002V3.59999C8.40002 2.93725 7.86277 2.39999 7.20002 2.39999ZM7.20002 8.39999C6.53728 8.39999 6.00002 8.93725 6.00002 9.59999C6.00002 10.2627 6.53728 10.8 7.20002 10.8H16.8C17.4628 10.8 18 10.2627 18 9.59999C18 8.93725 17.4628 8.39999 16.8 8.39999H7.20002Z" fill="#666666"/>
</svg>
