<svg width="17" height="16" viewBox="0 0 17 16" fill="none" xmlns="http://www.w3.org/2000/svg">
    <path fill-rule="evenodd" clip-rule="evenodd" d="M8.33334 16C12.7516 16 16.3333 12.4183 16.3333 8C16.3333 3.58172 12.7516 0 8.33334 0C3.91507 0 0.333344 3.58172 0.333344 8C0.333344 12.4183 3.91507 16 8.33334 16ZM12.0405 6.70711C12.431 6.31658 12.431 5.68342 12.0405 5.29289C11.6499 4.90237 11.0168 4.90237 10.6262 5.29289L7.33334 8.58579L6.04045 7.29289C5.64993 6.90237 5.01676 6.90237 4.62624 7.29289C4.23571 7.68342 4.23571 8.31658 4.62624 8.70711L6.62624 10.7071C7.01676 11.0976 7.64993 11.0976 8.04045 10.7071L12.0405 6.70711Z" fill="#22C55E"/>
</svg>
