<svg width="24" height="24" viewBox="0 0 24 24" fill="none" xmlns="http://www.w3.org/2000/svg">
    <path d="M2.40002 13.2C2.40002 12.5373 2.93728 12 3.60002 12H6.00002C6.66277 12 7.20002 12.5373 7.20002 13.2V19.2C7.20002 19.8627 6.66277 20.4 6.00002 20.4H3.60002C2.93728 20.4 2.40002 19.8627 2.40002 19.2V13.2Z" fill="#666666"/>
    <path d="M9.60002 8.40001C9.60002 7.73726 10.1373 7.20001 10.8 7.20001H13.2C13.8628 7.20001 14.4 7.73726 14.4 8.40001V19.2C14.4 19.8627 13.8628 20.4 13.2 20.4H10.8C10.1373 20.4 9.60002 19.8627 9.60002 19.2V8.40001Z" fill="#666666"/>
    <path d="M16.8 4.80001C16.8 4.13726 17.3373 3.60001 18 3.60001H20.4C21.0628 3.60001 21.6 4.13726 21.6 4.80001V19.2C21.6 19.8627 21.0628 20.4 20.4 20.4H18C17.3373 20.4 16.8 19.8627 16.8 19.2V4.80001Z" fill="#666666"/>
</svg>
