<svg width="21" height="20" viewBox="0 0 21 20" fill="none" xmlns="http://www.w3.org/2000/svg">
    <path fill-rule="evenodd" clip-rule="evenodd" d="M12.0901 2.03351C12.3673 2.10713 12.5996 2.29624 12.7279 2.55279C13.2114 3.51991 13.5723 4.10688 13.9354 4.5828C14.3029 5.06453 14.6917 5.45889 15.2831 6.05028C16.6497 7.41692 17.3333 9.21013 17.3333 11C17.3333 12.7899 16.6497 14.5831 15.2831 15.9498C12.5494 18.6834 8.11727 18.6834 5.3836 15.9498C4.01696 14.5831 3.33335 12.7899 3.33334 11C3.33334 9.21013 4.01695 7.41692 5.3836 6.05028C5.66959 5.76428 6.09971 5.67872 6.47339 5.83351C6.84706 5.98829 7.0907 6.35292 7.0907 6.75739C7.0907 7.8772 7.16063 8.73046 7.48815 9.41104C7.66825 9.78527 7.94919 10.1512 8.43339 10.4776C8.54903 9.41687 8.76086 8.12448 9.04709 6.89778C9.27245 5.93195 9.55274 4.96773 9.88634 4.16366C10.0532 3.76148 10.2419 3.37854 10.4562 3.04791C10.6648 2.72608 10.9328 2.39858 11.2787 2.16795C11.5174 2.00885 11.8129 1.95988 12.0901 2.03351ZM12.4547 15.1213C11.2831 16.2929 9.3836 16.2929 8.21202 15.1213C7.62624 14.5355 7.33334 13.7678 7.33334 13C7.33334 13 8.21202 13.5 9.83339 13.5C9.83339 12.5 10.3334 9.5 11.0834 9C11.5834 10 11.8689 10.2929 12.4547 10.8787C13.0405 11.4645 13.3333 12.2322 13.3333 13C13.3333 13.7678 13.0404 14.5355 12.4547 15.1213Z" fill="#EF4444"/>
</svg>
