<svg width="15" height="16" viewBox="0 0 15 16" fill="none" xmlns="http://www.w3.org/2000/svg">
    <path fill-rule="evenodd" clip-rule="evenodd" d="M2.33334 7V5C2.33334 2.23858 4.57192 0 7.33334 0C10.0948 0 12.3333 2.23858 12.3333 5V7C13.4379 7 14.3333 7.89543 14.3333 9V14C14.3333 15.1046 13.4379 16 12.3333 16H2.33334C1.22877 16 0.333344 15.1046 0.333344 14V9C0.333344 7.89543 1.22877 7 2.33334 7ZM10.3333 5V7H4.33334V5C4.33334 3.34315 5.67649 2 7.33334 2C8.9902 2 10.3333 3.34315 10.3333 5Z" fill="#52525B"/>
</svg>
