<svg width="130" height="126" viewBox="0 0 130 126" fill="none" xmlns="http://www.w3.org/2000/svg">
    <path d="M82.5294 28.337H47.5001C46.7018 28.3379 45.9365 28.6532 45.3721 29.2137C44.8076 29.7742 44.4901 30.534 44.4891 31.3267V108.63L44.0877 108.751L35.4944 111.364C35.0871 111.488 34.6473 111.446 34.2713 111.247C33.8953 111.049 33.614 110.71 33.4892 110.306L7.92813 27.4022C7.80374 26.9978 7.84614 26.5609 8.04601 26.1876C8.24587 25.8142 8.58686 25.5349 8.99402 25.4111L22.2362 21.385L60.6258 9.71722L73.8679 5.69111C74.0695 5.62953 74.2812 5.60801 74.4911 5.62779C74.7011 5.64756 74.905 5.70825 75.0912 5.80636C75.2775 5.90448 75.4425 6.03811 75.5766 6.19959C75.7108 6.36108 75.8116 6.54726 75.8733 6.74747L82.407 27.9383L82.5294 28.337Z" fill="#F2F2F2"/>
    <path d="M90.1734 27.9386L82.2987 2.39876C82.1677 1.97322 81.9535 1.57748 81.6684 1.23416C81.3833 0.890839 81.0329 0.606667 80.6371 0.397879C80.2414 0.189091 79.8081 0.0597777 79.362 0.0173344C78.9159 -0.0251089 78.4657 0.0201491 78.0372 0.150517L59.4195 5.80899L21.032 17.4787L2.41427 23.1392C1.54939 23.4029 0.825218 23.9966 0.400702 24.7899C-0.0238136 25.5832 -0.113987 26.5113 0.14998 27.3706L27.0639 114.655C27.2783 115.349 27.711 115.956 28.2984 116.388C28.8858 116.819 29.5971 117.052 30.3278 117.053C30.666 117.053 31.0023 117.003 31.3254 116.904L44.0878 113.025L44.4893 112.901V112.485L44.0878 112.606L31.207 116.523C30.4436 116.754 29.619 116.675 28.9142 116.303C28.2094 115.931 27.6818 115.297 27.4473 114.54L0.535464 27.253C0.419259 26.8777 0.378759 26.4833 0.41628 26.0924C0.453802 25.7015 0.568605 25.3218 0.754124 24.975C0.939642 24.6283 1.19223 24.3213 1.49742 24.0716C1.80261 23.8219 2.15441 23.6344 2.53267 23.5199L21.1504 17.8594L59.538 6.19168L78.1557 0.531208C78.4426 0.444267 78.7409 0.399938 79.0409 0.399661C79.6846 0.401096 80.311 0.607176 80.8283 0.987717C81.3456 1.36826 81.7265 1.90326 81.9154 2.51436L89.7539 27.9386L89.8783 28.3373H90.2959L90.1734 27.9386Z" fill="#3F3D56"/>
    <path d="M24.6258 25.4763C24.2389 25.476 23.8623 25.3526 23.5512 25.1243C23.2401 24.8959 23.0109 24.5745 22.8972 24.2073L20.3117 15.8219C20.2423 15.5967 20.2181 15.36 20.2408 15.1255C20.2634 14.891 20.3324 14.6633 20.4437 14.4552C20.555 14.2472 20.7065 14.063 20.8895 13.9131C21.0725 13.7632 21.2835 13.6505 21.5103 13.5816L56.8266 2.84588C57.2847 2.70707 57.7796 2.75441 58.2026 2.97752C58.6256 3.20063 58.9422 3.58128 59.0829 4.03592L61.6684 12.4214C61.8081 12.8763 61.7604 13.3677 61.5357 13.7877C61.311 14.2077 60.9277 14.5221 60.4699 14.6618L25.1536 25.3976C24.9825 25.4497 24.8047 25.4762 24.6258 25.4763Z" fill="#0EA5E9"/>
    <path d="M38.1695 8.96004C40.3867 8.96004 42.1841 7.17534 42.1841 4.97379C42.1841 2.77225 40.3867 0.987549 38.1695 0.987549C35.9523 0.987549 34.1549 2.77225 34.1549 4.97379C34.1549 7.17534 35.9523 8.96004 38.1695 8.96004Z" fill="#0EA5E9"/>
    <path d="M38.1696 7.49801C39.5736 7.49801 40.7118 6.36789 40.7118 4.9738C40.7118 3.57971 39.5736 2.44958 38.1696 2.44958C36.7656 2.44958 35.6274 3.57971 35.6274 4.9738C35.6274 6.36789 36.7656 7.49801 38.1696 7.49801Z" fill="white"/>
    <path d="M120.967 116.034H53.1205C52.6682 116.034 52.2345 115.855 51.9146 115.538C51.5947 115.22 51.4148 114.789 51.4143 114.34V33.6187C51.4148 33.1696 51.5947 32.7389 51.9146 32.4213C52.2345 32.1037 52.6682 31.9251 53.1205 31.9246H120.967C121.42 31.9251 121.853 32.1037 122.173 32.4213C122.493 32.7389 122.673 33.1696 122.673 33.6187V114.34C122.673 114.789 122.493 115.22 122.173 115.538C121.853 115.855 121.42 116.034 120.967 116.034Z" fill="#E6E6E6"/>
    <path d="M89.7536 27.9384H47.5C46.5953 27.9396 45.7281 28.297 45.0884 28.9322C44.4488 29.5673 44.0888 30.4284 44.0876 31.3267V112.606L44.489 112.485V31.3267C44.49 30.534 44.8075 29.7742 45.372 29.2137C45.9364 28.6532 46.7017 28.3379 47.5 28.337H89.8781L89.7536 27.9384ZM126.588 27.9384H47.5C46.5953 27.9396 45.7281 28.297 45.0884 28.9322C44.4488 29.5673 44.0888 30.4284 44.0876 31.3267V122.612C44.0888 123.51 44.4488 124.371 45.0884 125.006C45.7281 125.641 46.5953 125.999 47.5 126H126.588C127.492 125.999 128.359 125.641 128.999 125.006C129.639 124.371 129.999 123.51 130 122.612V31.3267C129.999 30.4284 129.639 29.5673 128.999 28.9322C128.359 28.297 127.492 27.9396 126.588 27.9384ZM129.599 122.612C129.598 123.404 129.28 124.164 128.716 124.725C128.151 125.285 127.386 125.6 126.588 125.601H47.5C46.7017 125.6 45.9364 125.285 45.372 124.725C44.8075 124.164 44.49 123.404 44.489 122.612V31.3267C44.49 30.534 44.8075 29.7742 45.372 29.2137C45.9364 28.6532 46.7017 28.3379 47.5 28.337H126.588C127.386 28.3379 128.151 28.6532 128.716 29.2137C129.28 29.7742 129.598 30.534 129.599 31.3267V122.612Z" fill="#3F3D56"/>
    <path d="M105.511 36.7081H68.5767C68.0977 36.7076 67.6385 36.5184 67.2998 36.1821C66.9611 35.8459 66.7706 35.3899 66.7701 34.9143V26.1446C66.7706 25.669 66.9611 25.213 67.2998 24.8768C67.6385 24.5405 68.0977 24.3513 68.5767 24.3508H105.511C105.99 24.3513 106.449 24.5405 106.788 24.8768C107.126 25.213 107.317 25.669 107.318 26.1446V34.9143C107.317 35.3899 107.127 35.8459 106.788 36.1821C106.449 36.5184 105.99 36.7076 105.511 36.7081Z" fill="#0EA5E9"/>
    <path d="M87.0438 24.9487C89.261 24.9487 91.0584 23.164 91.0584 20.9624C91.0584 18.7609 89.261 16.9762 87.0438 16.9762C84.8266 16.9762 83.0292 18.7609 83.0292 20.9624C83.0292 23.164 84.8266 24.9487 87.0438 24.9487Z" fill="#0EA5E9"/>
    <path d="M87.0438 23.3904C88.3942 23.3904 89.489 22.3034 89.489 20.9624C89.489 19.6215 88.3942 18.5344 87.0438 18.5344C85.6933 18.5344 84.5985 19.6215 84.5985 20.9624C84.5985 22.3034 85.6933 23.3904 87.0438 23.3904Z" fill="white"/>
</svg>
