<svg width="20" height="20" viewBox="0 0 20 20" fill="none" xmlns="http://www.w3.org/2000/svg">
    <path d="M10 2C6.68629 2 4 4.68629 4 8V11.5858L3.29289 12.2929C3.00689 12.5789 2.92134 13.009 3.07612 13.3827C3.2309 13.7564 3.59554 14 4 14H16C16.4045 14 16.7691 13.7564 16.9239 13.3827C17.0787 13.009 16.9931 12.5789 16.7071 12.2929L16 11.5858V8C16 4.68629 13.3137 2 10 2Z" fill="black" fill-opacity="0.6"/>
    <path d="M9.99997 18C8.34312 18 6.99997 16.6569 6.99997 15H13C13 16.6569 11.6568 18 9.99997 18Z" fill="black" fill-opacity="0.6"/>
    <circle cx="16" cy="4" r="4" fill="#0EA5E9"/>
</svg>
