<svg width="12" height="12" viewBox="0 0 12 12" fill="none" xmlns="http://www.w3.org/2000/svg">
    <path fill-rule="evenodd" clip-rule="evenodd" d="M6.00002 0.399902C6.44185 0.399902 6.80002 0.758075 6.80002 1.1999V5.1999H10.8C11.2419 5.1999 11.6 5.55808 11.6 5.9999C11.6 6.44173 11.2419 6.7999 10.8 6.7999H6.80002V10.7999C6.80002 11.2417 6.44185 11.5999 6.00002 11.5999C5.5582 11.5999 5.20002 11.2417 5.20002 10.7999V6.7999H1.20002C0.758197 6.7999 0.400024 6.44173 0.400024 5.9999C0.400024 5.55807 0.758197 5.1999 1.20002 5.1999L5.20002 5.1999V1.1999C5.20002 0.758075 5.5582 0.399902 6.00002 0.399902Z" fill="#52525B"/>
</svg>
