<svg width="24" height="24" viewBox="0 0 24 24" fill="none" xmlns="http://www.w3.org/2000/svg">
    <path fill-rule="evenodd" clip-rule="evenodd" d="M13.7871 3.80512C13.3323 1.93162 10.6678 1.93162 10.213 3.80512C9.91915 5.01538 8.53256 5.58973 7.46902 4.9417C5.82264 3.93854 3.93857 5.82261 4.94173 7.46899C5.58976 8.53253 5.01542 9.91912 3.80515 10.2129C1.93165 10.6678 1.93165 13.3322 3.80515 13.7871C5.01542 14.0809 5.58976 15.4675 4.94173 16.531C3.93857 18.1774 5.82264 20.0614 7.46902 19.0583C8.53256 18.4103 9.91915 18.9846 10.213 20.1949C10.6678 22.0684 13.3323 22.0684 13.7871 20.1949C14.0809 18.9846 15.4675 18.4103 16.531 19.0583C18.1774 20.0614 20.0615 18.1774 19.0583 16.531C18.4103 15.4675 18.9846 14.0809 20.1949 13.7871C22.0684 13.3322 22.0684 10.6678 20.1949 10.2129C18.9846 9.91912 18.4103 8.53253 19.0583 7.46899C20.0615 5.82261 18.1774 3.93854 16.531 4.9417C15.4675 5.58973 14.0809 5.01539 13.7871 3.80512ZM12 15.6C13.9882 15.6 15.6 13.9882 15.6 12C15.6 10.0118 13.9882 8.39999 12 8.39999C10.0118 8.39999 8.40002 10.0118 8.40002 12C8.40002 13.9882 10.0118 15.6 12 15.6Z" fill="#666666"/>
</svg>
