<svg width="16" height="20" viewBox="0 0 16 20" fill="none" xmlns="http://www.w3.org/2000/svg">
    <path d="M6.66667 0C5.93029 0 5.33333 0.559644 5.33333 1.25C5.33333 1.94036 5.93029 2.5 6.66667 2.5H9.33333C10.0697 2.5 10.6667 1.94036 10.6667 1.25C10.6667 0.559644 10.0697 0 9.33333 0H6.66667Z" fill="#666" />
    <path fill-rule="evenodd" clip-rule="evenodd" d="M0 3.75C0 2.36929 1.19391 1.25 2.66667 1.25C2.66667 3.32107 4.45753 5 6.66667 5H9.33333C11.5425 5 13.3333 3.32107 13.3333 1.25C14.8061 1.25 16 2.36929 16 3.75V17.5C16 18.8807 14.8061 20 13.3333 20H2.66667C1.19391 20 0 18.8807 0 17.5V3.75ZM12.9428 10.8839C13.4635 10.3957 13.4635 9.60427 12.9428 9.11612C12.4221 8.62796 11.5779 8.62796 11.0572 9.11612L6.66667 13.2322L4.94281 11.6161C4.42211 11.128 3.57789 11.128 3.05719 11.6161C2.53649 12.1043 2.53649 12.8957 3.05719 13.3839L5.72386 15.8839C6.24456 16.372 7.08878 16.372 7.60948 15.8839L12.9428 10.8839Z" fill="#666" />
</svg>
