<svg width="16" height="20" viewBox="0 0 16 20" fill="none" xmlns="http://www.w3.org/2000/svg">
    <path d="M6.79999 0.399994C6.13725 0.399994 5.59999 0.937252 5.59999 1.59999C5.59999 2.26274 6.13725 2.79999 6.79999 2.79999H9.19999C9.86273 2.79999 10.4 2.26274 10.4 1.59999C10.4 0.937252 9.86273 0.399994 9.19999 0.399994H6.79999Z" fill="#666666"/>
    <path fill-rule="evenodd" clip-rule="evenodd" d="M0.799988 3.99999C0.799988 2.67451 1.8745 1.59999 3.19999 1.59999C3.19999 3.58822 4.81176 5.19999 6.79999 5.19999H9.19999C11.1882 5.19999 12.8 3.58822 12.8 1.59999C14.1255 1.59999 15.2 2.67451 15.2 3.99999V17.2C15.2 18.5255 14.1255 19.6 12.8 19.6H3.19999C1.8745 19.6 0.799988 18.5255 0.799988 17.2V3.99999ZM4.39999 8.79999C3.73725 8.79999 3.19999 9.33725 3.19999 9.99999C3.19999 10.6627 3.73725 11.2 4.39999 11.2H4.41199C5.07473 11.2 5.61199 10.6627 5.61199 9.99999C5.61199 9.33725 5.07473 8.79999 4.41199 8.79999H4.39999ZM7.99999 8.79999C7.33725 8.79999 6.79999 9.33725 6.79999 9.99999C6.79999 10.6627 7.33725 11.2 7.99999 11.2H11.6C12.2627 11.2 12.8 10.6627 12.8 9.99999C12.8 9.33725 12.2627 8.79999 11.6 8.79999H7.99999ZM4.39999 13.6C3.73725 13.6 3.19999 14.1373 3.19999 14.8C3.19999 15.4627 3.73725 16 4.39999 16H4.41199C5.07473 16 5.61199 15.4627 5.61199 14.8C5.61199 14.1373 5.07473 13.6 4.41199 13.6H4.39999ZM7.99999 13.6C7.33725 13.6 6.79999 14.1373 6.79999 14.8C6.79999 15.4627 7.33725 16 7.99999 16H11.6C12.2627 16 12.8 15.4627 12.8 14.8C12.8 14.1373 12.2627 13.6 11.6 13.6H7.99999Z" fill="#666666"/>
</svg>
