<svg width="12" height="14" viewBox="0 0 12 14" fill="none" xmlns="http://www.w3.org/2000/svg">
    <path fill-rule="evenodd" clip-rule="evenodd" d="M5.20003 0.600098C4.89701 0.600098 4.62 0.7713 4.48448 1.04233L3.9056 2.2001H1.20002C0.758197 2.2001 0.400024 2.55827 0.400024 3.0001C0.400024 3.44193 0.758197 3.8001 1.20002 3.8001L1.20002 11.8001C1.20002 12.6838 1.91637 13.4001 2.80002 13.4001H9.20003C10.0837 13.4001 10.8 12.6838 10.8 11.8001V3.8001C11.2419 3.8001 11.6 3.44193 11.6 3.0001C11.6 2.55827 11.2419 2.2001 10.8 2.2001H8.09445L7.51557 1.04233C7.38005 0.7713 7.10304 0.600098 6.80003 0.600098H5.20003ZM3.60002 5.4001C3.60002 4.95827 3.9582 4.6001 4.40002 4.6001C4.84185 4.6001 5.20002 4.95827 5.20002 5.4001V10.2001C5.20002 10.6419 4.84185 11.0001 4.40002 11.0001C3.9582 11.0001 3.60002 10.6419 3.60002 10.2001V5.4001ZM7.60003 4.6001C7.1582 4.6001 6.80002 4.95827 6.80002 5.4001V10.2001C6.80002 10.6419 7.1582 11.0001 7.60003 11.0001C8.04185 11.0001 8.40003 10.6419 8.40003 10.2001V5.4001C8.40003 4.95827 8.04185 4.6001 7.60003 4.6001Z" fill="#52525B"/>
</svg>
